<?xml version="1.0" encoding="UTF-8" standalone="no"?>
<!DOCTYPE svg PUBLIC "-//W3C//DTD SVG 1.1//EN" "http://www.w3.org/Graphics/SVG/1.1/DTD/svg11.dtd">
<svg id="svg" version="1.1" xmlns="http://www.w3.org/2000/svg" xmlns:xlink="http://www.w3.org/1999/xlink" width="60" height="60" viewBox="0, 0, 400,400"><g id="svgg"><path id="path0" d="M186.776 96.119 C 178.599 97.745,175.311 108.488,181.192 114.369 C 185.410 118.587,192.312 118.625,196.484 114.453 C 203.885 107.053,197.017 94.083,186.776 96.119 M227.110 99.228 C 215.194 100.911,208.532 113.079,213.701 123.720 C 214.961 126.312,218.294 130.271,219.553 130.671 C 220.300 130.908,220.313 131.680,220.313 176.394 L 220.313 221.875 203.613 221.874 L 186.914 221.873 185.750 219.628 C 179.622 207.805,161.684 208.074,155.869 220.076 C 146.581 239.246,173.628 254.473,185.353 236.675 L 187.132 233.976 203.624 234.078 L 220.117 234.180 220.313 251.398 L 220.508 268.617 221.602 270.051 C 224.581 273.955,230.460 273.514,232.277 269.251 C 232.703 268.250,232.813 264.522,232.813 250.989 L 232.813 233.984 239.221 233.984 L 245.629 233.984 246.702 235.815 C 256.923 253.257,283.512 242.188,277.942 222.810 C 273.826 208.492,253.153 206.617,246.806 219.986 L 245.909 221.875 239.361 221.875 L 232.813 221.875 232.813 194.336 L 232.813 166.797 239.615 166.797 L 246.418 166.797 247.828 168.718 C 251.493 173.711,255.290 175.586,261.738 175.586 C 282.498 175.586,284.671 146.294,264.192 142.507 C 257.217 141.217,249.160 145.611,246.432 152.191 C 245.376 154.740,245.197 154.791,238.077 154.617 L 233.008 154.492 232.904 143.489 L 232.800 132.487 234.076 132.210 C 243.453 130.180,249.231 118.124,245.053 109.305 C 241.780 102.397,234.325 98.210,227.110 99.228 M159.961 124.358 C 147.488 128.438,143.915 143.943,153.407 152.796 C 160.671 159.570,172.657 158.247,178.709 150.003 L 180.145 148.047 184.578 148.047 C 194.004 148.047,195.024 149.612,194.848 163.801 C 194.649 179.926,194.994 179.687,171.824 179.687 L 156.681 179.687 155.466 177.143 C 148.708 162.983,127.943 164.784,124.040 179.867 C 119.416 197.737,143.611 208.844,154.413 193.809 L 155.858 191.797 172.363 191.791 C 193.554 191.784,195.996 191.240,201.565 185.287 C 206.562 179.945,207.030 178.033,207.038 162.917 C 207.044 150.448,206.984 149.859,205.359 146.653 C 201.558 139.153,195.605 135.722,186.484 135.773 L 180.975 135.805 179.878 133.285 C 176.761 126.132,167.385 121.929,159.961 124.358 M271.765 183.224 C 263.971 185.136,260.681 195.062,265.842 201.092 C 270.608 206.660,280.144 205.583,283.508 199.097 C 287.682 191.051,280.336 181.121,271.765 183.224 M101.660 239.733 C 102.251 239.822,103.218 239.822,103.809 239.733 C 104.399 239.643,103.916 239.570,102.734 239.570 C 101.553 239.570,101.069 239.643,101.660 239.733 " stroke="none" fill="#fafafa" fill-rule="evenodd"></path><path id="path1" d="M192.383 78.769 C 186.076 79.319,176.424 81.315,170.508 83.294 C 168.574 83.941,166.816 84.509,166.602 84.557 C 166.387 84.605,165.332 85.037,164.258 85.518 C 160.602 87.154,159.829 87.434,159.602 87.206 C 159.477 87.081,159.375 87.165,159.375 87.393 C 159.375 87.620,158.979 87.908,158.496 88.032 C 157.348 88.327,148.875 93.046,145.996 94.994 C 144.761 95.830,143.750 96.385,143.750 96.229 C 143.750 96.072,143.530 96.208,143.262 96.530 C 142.772 97.116,140.025 99.219,139.748 99.219 C 139.483 99.219,135.045 103.241,130.913 107.227 C 115.487 122.106,105.946 140.518,103.283 160.547 C 102.515 166.323,102.418 178.637,103.112 182.422 C 103.988 187.206,104.040 188.483,103.382 189.141 C 103.046 189.476,102.851 189.830,102.949 189.928 C 103.138 190.117,93.835 211.001,93.415 211.328 C 93.277 211.436,93.119 211.802,93.064 212.142 C 93.009 212.483,91.207 216.645,89.060 221.393 C 86.913 226.140,85.156 230.212,85.156 230.442 C 85.156 230.672,85.024 230.860,84.863 230.860 C 84.368 230.861,84.338 233.664,84.817 235.117 C 85.997 238.693,88.406 239.403,99.506 239.446 C 105.489 239.470,106.622 239.712,108.336 241.333 C 110.530 243.410,110.571 243.656,110.534 254.815 C 110.496 266.567,110.469 266.445,113.576 268.791 C 116.730 271.172,116.783 271.405,116.782 282.810 C 116.781 296.413,118.153 300.103,124.596 303.823 C 125.570 304.385,126.496 305.030,126.654 305.255 C 126.812 305.480,126.944 305.537,126.947 305.381 C 126.950 305.225,127.437 305.285,128.027 305.514 C 130.429 306.446,134.736 306.625,155.333 306.644 C 178.973 306.665,179.061 306.673,183.984 309.061 C 188.676 311.337,193.422 317.259,193.876 321.403 C 193.942 322.004,194.092 322.664,194.210 322.869 C 194.327 323.074,194.725 324.209,195.095 325.391 C 196.005 328.306,197.760 329.687,200.554 329.688 C 202.839 329.688,203.284 329.284,208.843 322.175 C 210.478 320.084,211.997 318.485,212.218 318.622 C 212.440 318.759,212.515 318.699,212.385 318.490 C 212.079 317.994,219.280 310.817,219.681 311.218 C 219.849 311.386,219.928 311.335,219.857 311.104 C 219.583 310.223,228.449 302.809,246.680 288.672 C 252.051 284.507,257.368 280.321,258.496 279.370 C 259.624 278.418,260.547 277.762,260.547 277.912 C 260.547 278.062,261.008 277.637,261.572 276.967 C 262.136 276.297,262.683 275.834,262.787 275.938 C 262.892 276.043,263.413 275.611,263.945 274.978 C 264.478 274.346,265.045 273.828,265.206 273.828 C 268.154 273.828,286.875 251.926,292.584 241.797 C 293.735 239.756,294.775 237.998,294.897 237.891 C 295.018 237.783,295.154 237.520,295.198 237.305 C 295.316 236.738,298.987 228.357,299.218 228.125 C 299.326 228.018,299.445 227.754,299.483 227.539 C 299.559 227.106,301.861 220.066,302.229 219.141 C 302.515 218.421,302.429 218.786,303.702 212.891 C 304.282 210.205,304.850 207.744,304.964 207.422 C 305.078 207.100,305.220 206.396,305.280 205.859 C 305.339 205.322,305.689 202.422,306.057 199.414 C 307.663 186.290,306.288 168.744,302.768 157.432 C 302.341 156.062,302.082 154.796,302.191 154.619 C 302.300 154.442,302.218 154.297,302.007 154.297 C 301.797 154.297,301.506 153.755,301.360 153.093 C 300.044 147.099,293.207 133.300,287.539 125.195 C 286.337 123.477,285.397 121.938,285.450 121.777 C 285.503 121.616,285.403 121.484,285.226 121.484 C 285.050 121.484,283.999 120.353,282.891 118.970 C 280.299 115.735,272.332 107.007,271.300 106.271 C 270.864 105.960,269.919 105.125,269.199 104.415 C 268.479 103.706,267.816 103.125,267.724 103.125 C 267.633 103.125,266.200 102.052,264.541 100.740 C 262.881 99.428,260.161 97.466,258.496 96.378 C 256.831 95.291,255.469 94.244,255.469 94.053 C 255.469 93.861,255.320 93.796,255.137 93.909 C 254.955 94.021,254.465 93.812,254.048 93.444 C 253.632 93.075,251.188 91.723,248.618 90.439 C 246.048 89.155,243.816 87.924,243.658 87.704 C 243.500 87.485,243.369 87.418,243.365 87.557 C 243.362 87.696,241.294 86.978,238.770 85.961 C 236.245 84.945,233.828 83.972,233.398 83.799 C 232.969 83.626,232.354 83.453,232.031 83.413 C 231.492 83.346,227.938 82.266,226.563 81.751 C 226.240 81.631,225.713 81.494,225.391 81.447 C 225.068 81.400,222.607 80.903,219.922 80.342 C 212.485 78.789,200.209 78.088,192.383 78.769 M193.668 96.833 C 201.892 101.032,201.925 112.626,193.725 116.809 C 186.667 120.411,177.846 114.827,177.970 106.836 C 178.098 98.608,186.571 93.209,193.668 96.833 M234.040 99.561 C 244.967 103.321,249.744 113.898,244.929 123.677 C 242.996 127.603,237.031 132.422,234.103 132.422 L 233.203 132.422 233.203 143.359 L 233.203 154.297 239.174 154.297 L 245.145 154.297 246.417 151.717 C 253.785 136.775,275.893 140.101,278.620 156.563 C 281.461 173.707,258.866 183.293,248.147 169.490 L 246.359 167.188 239.781 167.188 L 233.203 167.188 233.203 194.336 L 233.203 221.484 239.443 221.484 L 245.683 221.484 246.330 220.215 C 254.568 204.038,278.976 209.662,278.897 227.719 C 278.819 245.406,255.126 251.397,246.431 235.927 L 245.559 234.375 239.400 234.375 L 233.241 234.375 233.125 251.465 C 233.013 267.738,232.970 268.618,232.227 269.881 C 229.412 274.660,222.393 273.824,220.488 268.483 C 220.073 267.319,219.952 263.414,219.939 250.684 L 219.922 234.375 203.417 234.375 L 186.913 234.375 185.937 236.220 C 177.804 251.593,154.102 245.260,154.102 227.714 C 154.102 209.810,178.489 203.813,186.133 219.838 L 186.914 221.475 203.418 221.480 L 219.922 221.484 219.922 176.544 L 219.922 131.603 217.285 128.985 C 204.234 116.027,216.956 93.684,234.040 99.561 M170.046 124.225 C 174.581 125.626,179.844 130.643,180.656 134.338 L 180.907 135.479 187.058 135.611 L 193.208 135.742 196.194 137.219 C 201.086 139.638,204.901 143.966,206.668 149.103 C 207.533 151.616,207.792 172.727,207.000 176.161 C 205.859 181.112,201.187 187.142,196.611 189.570 C 192.036 191.997,190.242 192.188,172.008 192.188 C 160.364 192.188,155.469 192.313,155.469 192.612 C 155.469 193.325,150.691 198.064,148.931 199.097 C 134.976 207.287,118.039 191.818,124.797 177.055 C 130.848 163.839,149.631 163.965,155.760 177.262 L 156.713 179.329 172.821 179.215 L 188.930 179.102 190.822 177.930 C 194.284 175.785,194.507 174.917,194.520 163.562 C 194.536 149.593,193.482 148.055,183.897 148.049 L 180.098 148.047 179.510 149.185 C 174.782 158.328,160.799 160.142,152.868 152.642 C 140.036 140.506,153.051 118.976,170.046 124.225 M278.328 183.733 C 282.574 185.710,285.535 190.686,285.026 194.987 C 283.739 205.857,269.476 208.718,264.257 199.153 C 259.431 190.308,269.277 179.518,278.328 183.733 " stroke="none" fill="#060b0b" fill-rule="evenodd"></path><path id="path2" d="M129.676 108.105 L 127.148 110.742 129.785 108.214 C 131.235 106.824,132.422 105.638,132.422 105.578 C 132.422 105.290,132.024 105.656,129.676 108.105 M177.825 107.031 C 177.825 107.783,177.905 108.091,178.004 107.715 C 178.102 107.339,178.102 106.724,178.004 106.348 C 177.905 105.972,177.825 106.279,177.825 107.031 M219.827 176.187 L 219.928 221.476 203.421 221.584 L 186.914 221.693 203.516 221.686 L 220.117 221.680 220.216 176.584 C 220.271 151.781,220.183 131.355,220.021 131.193 C 219.859 131.031,219.772 151.278,219.827 176.187 M232.984 143.555 C 232.984 149.570,233.039 151.977,233.105 148.902 C 233.171 145.828,233.171 140.906,233.104 137.965 C 233.038 135.024,232.984 137.539,232.984 143.555 M232.992 167.285 C 232.890 167.554,232.851 179.902,232.907 194.727 L 233.008 221.680 239.228 221.788 C 242.649 221.847,245.585 221.759,245.752 221.592 C 245.920 221.426,243.165 221.341,239.630 221.405 L 233.203 221.521 233.203 194.364 L 233.203 167.206 239.746 167.089 L 246.289 166.972 239.734 166.884 C 234.784 166.818,233.133 166.916,232.992 167.285 M102.434 176.563 C 102.434 177.314,102.515 177.622,102.613 177.246 C 102.711 176.870,102.711 176.255,102.613 175.879 C 102.515 175.503,102.434 175.811,102.434 176.563 M306.752 182.227 C 306.755 183.301,306.831 183.694,306.921 183.100 C 307.011 182.506,307.008 181.627,306.916 181.147 C 306.823 180.667,306.749 181.152,306.752 182.227 M123.145 184.180 C 123.150 185.039,123.230 185.345,123.323 184.859 C 123.417 184.373,123.413 183.670,123.315 183.296 C 123.217 182.923,123.141 183.320,123.145 184.180 M306.747 190.625 C 306.747 191.592,306.823 191.987,306.916 191.504 C 307.009 191.021,307.009 190.229,306.916 189.746 C 306.823 189.263,306.747 189.658,306.747 190.625 M165.933 192.086 C 167.284 192.163,169.394 192.162,170.621 192.085 C 171.848 192.008,170.742 191.945,168.164 191.946 C 165.586 191.947,164.582 192.010,165.933 192.086 M187.207 192.066 C 187.583 192.164,188.198 192.164,188.574 192.066 C 188.950 191.968,188.643 191.888,187.891 191.888 C 187.139 191.888,186.831 191.968,187.207 192.066 M284.877 193.945 C 284.880 195.020,284.956 195.413,285.046 194.819 C 285.136 194.225,285.133 193.346,285.041 192.866 C 284.948 192.385,284.874 192.871,284.877 193.945 M262.997 194.141 C 262.997 195.107,263.073 195.503,263.166 195.020 C 263.259 194.536,263.259 193.745,263.166 193.262 C 263.073 192.778,262.997 193.174,262.997 194.141 M220.101 250.781 C 220.101 259.912,220.152 263.647,220.214 259.082 C 220.277 254.517,220.277 247.046,220.214 242.480 C 220.152 237.915,220.101 241.650,220.101 250.781 M232.991 250.781 C 232.991 259.912,233.043 263.647,233.105 259.082 C 233.168 254.517,233.168 247.046,233.105 242.480 C 233.043 237.915,232.991 241.650,232.991 250.781 M110.277 261.133 C 110.279 262.422,110.352 262.902,110.439 262.200 C 110.526 261.498,110.524 260.443,110.435 259.856 C 110.346 259.269,110.275 259.844,110.277 261.133 M276.151 263.574 L 274.805 265.039 276.270 263.693 C 277.633 262.440,277.914 262.109,277.616 262.109 C 277.550 262.109,276.891 262.769,276.151 263.574 M218.729 311.621 L 217.383 313.086 218.848 311.740 C 219.653 310.999,220.313 310.340,220.313 310.275 C 220.313 309.977,219.982 310.258,218.729 311.621 M211.889 318.457 L 210.742 319.727 212.012 318.579 C 212.710 317.948,213.281 317.377,213.281 317.310 C 213.281 317.008,212.959 317.274,211.889 318.457 " stroke="none" fill="#585b5a" fill-rule="evenodd"></path><path id="path3" d="M163.581 123.721 C 164.283 123.808,165.338 123.806,165.925 123.717 C 166.512 123.627,165.938 123.556,164.648 123.559 C 163.359 123.561,162.879 123.634,163.581 123.721 M181.744 135.827 C 182.337 135.917,183.216 135.915,183.697 135.822 C 184.177 135.729,183.691 135.656,182.617 135.659 C 181.543 135.662,181.150 135.737,181.744 135.827 M249.780 146.973 L 248.633 148.242 249.902 147.095 C 250.601 146.464,251.172 145.893,251.172 145.825 C 251.172 145.524,250.850 145.789,249.780 146.973 M151.563 151.294 C 151.563 151.361,152.134 151.933,152.832 152.564 L 154.102 153.711 152.954 152.441 C 151.885 151.258,151.563 150.992,151.563 151.294 M207.172 155.078 C 207.172 157.119,207.238 157.954,207.318 156.934 C 207.399 155.913,207.399 154.243,207.318 153.223 C 207.238 152.202,207.172 153.037,207.172 155.078 M236.409 154.586 C 237.849 154.661,240.310 154.662,241.877 154.587 C 243.444 154.513,242.266 154.452,239.258 154.451 C 236.250 154.450,234.968 154.511,236.409 154.586 M207.195 166.406 C 207.195 170.596,207.252 172.310,207.322 170.215 C 207.393 168.120,207.393 164.692,207.322 162.598 C 207.252 160.503,207.195 162.217,207.195 166.406 M194.622 171.484 C 194.622 172.236,194.702 172.544,194.801 172.168 C 194.899 171.792,194.899 171.177,194.801 170.801 C 194.702 170.425,194.622 170.732,194.622 171.484 M162.402 179.589 C 165.679 179.654,171.040 179.654,174.316 179.589 C 177.593 179.524,174.912 179.470,168.359 179.470 C 161.807 179.470,159.126 179.524,162.402 179.589 M139.362 201.064 C 140.065 201.151,141.119 201.149,141.706 201.060 C 142.293 200.971,141.719 200.900,140.430 200.902 C 139.141 200.904,138.660 200.977,139.362 201.064 M170.215 210.823 C 170.698 210.916,171.489 210.916,171.973 210.823 C 172.456 210.729,172.061 210.653,171.094 210.653 C 170.127 210.653,169.731 210.729,170.215 210.823 M260.650 210.827 C 261.244 210.917,262.123 210.915,262.603 210.822 C 263.083 210.729,262.598 210.656,261.523 210.659 C 260.449 210.662,260.056 210.737,260.650 210.827 M278.614 227.539 C 278.618 228.398,278.698 228.704,278.792 228.218 C 278.885 227.732,278.882 227.029,278.784 226.656 C 278.686 226.282,278.610 226.680,278.614 227.539 M194.434 234.277 C 198.569 234.340,205.337 234.340,209.473 234.277 C 213.608 234.214,210.225 234.162,201.953 234.162 C 193.682 234.162,190.298 234.214,194.434 234.277 M235.547 234.248 C 240.778 234.531,246.006 234.546,245.839 234.277 C 245.739 234.116,242.899 234.018,239.528 234.058 C 236.157 234.099,234.365 234.184,235.547 234.248 M116.549 277.148 C 116.550 279.297,116.616 280.126,116.695 278.991 C 116.774 277.856,116.773 276.098,116.693 275.085 C 116.613 274.071,116.548 275.000,116.549 277.148 M171.582 306.925 C 172.388 307.009,173.706 307.009,174.512 306.925 C 175.317 306.841,174.658 306.772,173.047 306.772 C 171.436 306.772,170.776 306.841,171.582 306.925 " stroke="none" fill="#848484" fill-rule="evenodd"></path><path id="path4" d="M194.697 162.305 C 194.697 166.816,194.754 168.609,194.823 166.287 C 194.892 163.966,194.892 160.275,194.822 158.084 C 194.753 155.894,194.696 157.793,194.697 162.305 M261.426 176.051 C 261.802 176.149,262.417 176.149,262.793 176.051 C 263.169 175.952,262.861 175.872,262.109 175.872 C 261.357 175.872,261.050 175.952,261.426 176.051 M181.750 179.584 C 182.777 179.665,184.359 179.664,185.266 179.582 C 186.172 179.500,185.332 179.434,183.398 179.436 C 181.465 179.437,180.723 179.504,181.750 179.584 M158.119 192.085 C 159.254 192.164,161.012 192.164,162.025 192.083 C 163.038 192.003,162.109 191.939,159.961 191.940 C 157.813 191.941,156.983 192.006,158.119 192.085 M176.074 192.088 C 178.062 192.159,181.313 192.159,183.301 192.088 C 185.288 192.017,183.662 191.959,179.688 191.959 C 175.713 191.959,174.087 192.017,176.074 192.088 M217.485 234.261 C 217.971 234.354,218.674 234.351,219.048 234.253 C 219.421 234.155,219.023 234.079,218.164 234.083 C 217.305 234.087,216.999 234.167,217.485 234.261 M170.610 244.808 C 171.096 244.901,171.799 244.897,172.173 244.800 C 172.546 244.702,172.148 244.625,171.289 244.630 C 170.430 244.634,170.124 244.714,170.610 244.808 M110.314 250.977 C 110.315 254.414,110.375 255.768,110.447 253.985 C 110.520 252.203,110.519 249.390,110.446 247.735 C 110.373 246.081,110.314 247.539,110.314 250.977 M214.233 316.113 L 213.086 317.383 214.355 316.236 C 215.054 315.604,215.625 315.033,215.625 314.966 C 215.625 314.664,215.303 314.930,214.233 316.113 " stroke="none" fill="#7c8481" fill-rule="evenodd"></path></g></svg>